<?xml version="1.0" standalone="no"?>
<!DOCTYPE svg PUBLIC "-//W3C//DTD SVG 20010904//EN"
 "http://www.w3.org/TR/2001/REC-SVG-20010904/DTD/svg10.dtd">
<svg version="1.0" xmlns="http://www.w3.org/2000/svg"
 width="500.000000pt" height="500.000000pt" viewBox="0 0 500.000000 500.000000"
 preserveAspectRatio="xMidYMid meet">

<g transform="translate(0.000000,500.000000) scale(0.100000,-0.100000)"
fill="#000000" stroke="none">
<path d="M2730 4399 c-44 -18 -90 -59 -113 -102 -21 -39 -22 -56 -25 -265 l-3
-223 -25 -11 c-30 -14 -30 -9 5 -318 l28 -245 -62 -57 c-75 -69 -112 -124
-160 -240 -25 -60 -64 -124 -121 -200 -100 -134 -161 -254 -244 -478 -130
-352 -193 -484 -259 -543 -40 -36 -193 -141 -310 -212 -35 -22 -74 -54 -88
-72 -72 -95 -35 -236 78 -294 76 -38 312 -19 476 39 100 35 146 63 255 151 48
39 89 71 91 71 3 0 7 -15 11 -32 4 -18 20 -50 37 -70 l30 -38 -32 0 c-43 0
-106 -37 -132 -79 -42 -69 -20 -180 44 -220 12 -7 54 -22 92 -33 53 -14 92
-35 156 -82 217 -158 318 -195 399 -146 30 18 39 19 69 9 74 -24 150 -7 190
44 10 14 29 27 41 31 12 4 36 19 52 32 29 25 32 25 98 15 72 -11 114 -5 159
24 24 16 63 91 77 148 15 62 -41 160 -112 196 -38 20 -129 35 -267 47 -76 6
-155 33 -155 53 0 5 14 81 31 168 28 141 31 177 31 331 l0 173 76 82 c43 45
91 105 109 132 69 109 110 307 85 414 -10 42 -9 47 18 78 16 18 32 49 36 69
12 64 -1 159 -30 210 -14 25 -26 57 -26 71 0 13 -7 40 -15 60 -20 48 -19 60
10 117 26 52 32 115 16 159 -8 21 1 51 50 168 32 78 59 145 59 149 0 4 -36 11
-80 14 l-79 7 -7 37 c-21 129 -48 196 -108 276 -31 40 -36 54 -36 104 -1 129
-82 240 -189 258 -20 3 -53 12 -74 20 -43 16 -120 17 -157 3z m116 -148 c13
-14 25 -18 54 -14 78 11 116 -42 107 -148 l-6 -68 51 -63 c66 -81 85 -127 102
-235 7 -48 17 -95 20 -104 6 -13 36 -33 84 -55 2 -1 -17 -52 -42 -113 -25 -60
-46 -112 -46 -115 0 -2 10 -6 23 -8 16 -2 23 -11 25 -30 3 -25 0 -28 -26 -28
l-30 0 4 -100 c2 -70 8 -106 19 -124 13 -19 14 -29 6 -45 -16 -29 -14 -39 15
-64 37 -32 54 -70 54 -122 l0 -46 -22 21 c-47 44 -98 9 -138 -94 -9 -24 -8
-24 25 -19 27 4 36 1 49 -19 30 -45 41 -130 29 -212 -15 -109 -56 -187 -158
-301 -48 -55 -94 -114 -101 -131 -10 -23 -14 -82 -14 -206 1 -152 -3 -192 -30
-331 -34 -182 -35 -198 -15 -236 41 -79 136 -124 290 -136 119 -9 186 -23 207
-42 24 -22 23 -33 -4 -33 -17 0 -19 -3 -10 -12 7 -7 12 -20 12 -30 0 -22 -38
-23 -130 -3 -36 8 -83 14 -105 15 -39 0 -39 0 -17 -16 27 -19 28 -34 2 -34
-12 0 -20 -7 -20 -16 0 -12 -6 -15 -25 -10 -13 3 -53 9 -87 12 -59 5 -62 4
-43 -10 48 -39 55 -47 55 -66 0 -26 -14 -25 -91 4 -35 13 -79 27 -97 31 l-33
7 6 -36 c6 -28 4 -37 -9 -42 -23 -9 -123 46 -246 135 -94 68 -177 109 -220
111 -25 1 -41 16 -34 33 5 14 20 17 80 17 64 0 75 3 88 22 20 29 23 192 4 208
-7 5 -24 18 -37 28 -21 17 -25 31 -35 138 -8 87 -15 118 -24 116 -26 -5 -210
-130 -301 -205 -59 -48 -117 -85 -157 -101 -87 -35 -247 -66 -342 -66 -83 0
-93 5 -106 47 -10 30 7 44 191 164 200 130 246 174 305 285 43 82 166 382 218
534 53 150 109 251 228 409 38 51 78 114 87 140 53 139 117 227 212 287 48 31
51 36 47 66 -10 69 -54 469 -54 488 0 12 9 22 23 25 l23 6 -1 260 0 261 24 19
c30 24 67 24 87 0z"/>
</g>
</svg>
