<?xml version="1.0" standalone="no"?>
<!DOCTYPE svg PUBLIC "-//W3C//DTD SVG 20010904//EN"
 "http://www.w3.org/TR/2001/REC-SVG-20010904/DTD/svg10.dtd">
<svg version="1.0" xmlns="http://www.w3.org/2000/svg"
 width="8000.000000pt" height="8000.000000pt" viewBox="0 0 8000.000000 8000.000000"
 preserveAspectRatio="xMidYMid meet">

<g transform="translate(0.000000,8000.000000) scale(0.100000,-0.100000)"
fill="#000000" stroke="none">
<path d="M43237 60830 c-469 -35 -918 -245 -1243 -582 -279 -289 -446 -633
-518 -1069 -63 -381 -81 -711 -80 -1474 0 -703 18 -1211 70 -2023 8 -134 13
-246 11 -248 -3 -3 -121 -51 -263 -108 -202 -81 -260 -108 -262 -123 -2 -14
523 -4709 551 -4925 3 -25 -11 -39 -162 -151 -777 -582 -1296 -1230 -1676
-2092 -32 -71 -122 -294 -202 -495 -164 -415 -286 -671 -401 -845 -45 -66
-154 -215 -244 -332 -90 -116 -248 -321 -351 -456 -591 -766 -930 -1293 -1271
-1974 -227 -455 -374 -804 -642 -1523 -1360 -3647 -1863 -4820 -2312 -5400
-83 -107 -240 -269 -357 -370 -404 -346 -1509 -1094 -2810 -1900 -390 -241
-426 -266 -530 -357 -259 -226 -436 -531 -518 -890 -19 -87 -22 -125 -21 -348
0 -268 7 -327 68 -537 162 -556 613 -1021 1172 -1207 266 -89 422 -105 900
-91 844 24 1514 109 2284 290 674 158 1446 422 1803 616 270 147 687 457 1546
1148 205 166 437 350 515 410 l141 108 12 -88 c56 -422 256 -801 566 -1071 68
-59 87 -82 87 -102 l0 -26 -203 -1 c-168 0 -219 -4 -304 -22 -511 -110 -909
-457 -1076 -938 -191 -549 -77 -1129 300 -1525 145 -151 288 -247 514 -345 61
-26 123 -42 229 -60 308 -51 707 -168 915 -268 80 -38 149 -83 250 -161 1419
-1099 2559 -1769 3200 -1880 105 -18 332 -21 431 -5 280 45 539 168 741 353
l42 38 113 -40 c205 -73 478 -154 593 -176 168 -32 372 -28 541 11 363 83 696
329 870 641 27 47 43 65 62 69 202 46 365 111 491 196 80 55 199 157 248 215
26 30 80 80 121 111 l74 56 107 -23 c537 -114 1000 -166 1255 -142 409 39 752
242 973 578 87 133 144 272 182 445 10 48 28 99 39 115 60 86 136 277 168 423
26 118 26 371 1 490 -144 672 -640 1220 -1302 1439 -349 115 -883 192 -1795
256 -752 53 -989 89 -1225 182 -148 58 -323 171 -414 266 l-33 35 16 149 c33
297 114 768 207 1203 99 463 158 758 193 970 129 775 179 1477 157 2213 -6
199 -11 613 -11 918 l0 556 41 64 c80 123 135 186 414 469 1045 1062 1392
1589 1735 2631 236 714 328 1554 244 2219 -25 201 -107 624 -135 697 -7 19 1
28 72 78 275 193 463 483 524 808 45 241 58 653 30 920 -53 502 -215 934 -484
1290 l-74 99 -2 172 c-3 181 -16 274 -60 428 -30 104 -88 240 -139 327 l-36
63 11 156 c6 87 8 185 4 220 l-7 63 122 220 c138 248 206 401 256 572 91 317
82 648 -27 963 -22 64 -53 143 -69 175 -17 32 -30 63 -30 68 0 6 248 609 551
1342 303 732 547 1335 542 1339 -4 4 -316 39 -693 79 -377 40 -706 75 -732 78
l-46 6 -7 56 c-43 375 -172 1058 -251 1330 -164 567 -461 1081 -958 1661
l-134 157 19 111 c89 523 -8 1118 -263 1614 -210 409 -552 754 -938 948 -253
127 -621 220 -870 220 -64 0 -76 4 -172 54 -292 153 -629 221 -971 196z m276
-1265 c140 -36 245 -124 314 -261 22 -45 42 -87 45 -94 3 -9 17 -6 53 13 77
38 212 83 294 97 161 27 381 -22 533 -119 73 -47 186 -156 244 -238 129 -180
218 -451 231 -703 7 -153 -5 -249 -57 -456 -50 -196 -64 -305 -51 -402 17
-130 55 -186 377 -552 284 -323 414 -493 553 -725 122 -201 202 -379 265 -589
75 -247 199 -941 225 -1261 26 -305 50 -427 109 -539 42 -80 148 -193 237
-253 128 -86 323 -168 498 -209 42 -9 77 -22 77 -27 0 -5 -192 -473 -426
-1039 -234 -567 -428 -1037 -431 -1044 -4 -10 3 -11 34 -2 21 7 85 12 143 12
86 1 113 -3 150 -20 56 -26 95 -65 129 -129 23 -45 26 -61 26 -155 l0 -105
-52 -109 c-60 -123 -45 -117 -173 -70 -48 17 -103 29 -152 32 -75 4 -78 4
-106 -25 -24 -23 -32 -44 -42 -103 -16 -95 -8 -269 19 -410 10 -58 31 -168 46
-245 32 -172 43 -368 26 -485 -7 -47 -30 -140 -52 -208 -44 -140 -47 -174 -19
-263 27 -87 61 -139 164 -243 107 -108 136 -162 136 -256 0 -73 -19 -122 -89
-229 -91 -142 -93 -262 -4 -383 19 -26 87 -91 151 -145 160 -133 243 -219 307
-317 162 -249 236 -598 207 -986 -12 -157 -17 -190 -31 -190 -4 0 -24 22 -44
49 -21 27 -70 80 -109 116 -224 212 -431 249 -638 113 -87 -57 -267 -233 -347
-338 -37 -49 -95 -148 -138 -235 -98 -197 -152 -357 -210 -621 -4 -20 3 -18
72 22 149 85 311 121 422 94 205 -49 363 -318 465 -791 69 -322 80 -422 80
-744 1 -349 -22 -570 -90 -885 -78 -355 -242 -822 -397 -1124 -206 -402 -513
-782 -1193 -1476 -159 -162 -320 -333 -357 -380 -161 -200 -321 -473 -393
-670 l-27 -75 -1 -595 c-1 -327 1 -899 4 -1270 4 -502 2 -715 -8 -830 -53
-634 -117 -1061 -266 -1756 -208 -971 -310 -1655 -293 -1964 9 -155 74 -328
191 -510 201 -310 620 -632 1036 -794 395 -154 724 -210 1595 -271 675 -48
1048 -91 1374 -160 196 -41 360 -133 463 -260 59 -72 117 -186 125 -244 l6
-42 -199 6 c-109 3 -217 8 -239 10 l-40 5 25 -18 c110 -77 167 -142 200 -229
21 -57 55 -276 45 -300 -5 -14 -25 -15 -148 -10 -244 11 -582 69 -1037 177
-233 56 -387 82 -610 104 -241 24 -670 47 -670 36 0 -3 57 -48 126 -100 136
-103 195 -175 231 -278 21 -60 12 -85 -30 -90 -23 -3 -265 28 -352 44 l-30 6
37 -38 c56 -59 78 -115 78 -205 0 -58 -4 -78 -15 -82 -8 -4 -214 34 -457 82
-585 117 -695 132 -1067 145 -111 4 -132 2 -120 -8 8 -8 120 -80 249 -162 129
-82 255 -166 279 -189 129 -118 202 -307 185 -478 -8 -85 -34 -117 -94 -117
-85 0 -536 156 -783 272 -266 124 -469 196 -675 240 -87 19 -138 23 -272 23
-91 0 -173 -3 -183 -8 -17 -6 -16 -10 11 -45 43 -55 90 -153 107 -224 26 -111
14 -299 -23 -362 -21 -35 -76 -66 -118 -66 -77 0 -385 129 -647 271 -540 292
-1183 729 -2084 1417 -154 118 -280 194 -441 267 -294 133 -639 239 -1052 325
-161 34 -188 42 -207 64 -62 72 -55 231 13 306 60 67 39 65 618 51 379 -9 534
-10 568 -2 200 46 342 186 419 416 24 69 24 73 21 445 -2 206 -6 537 -11 735
-7 335 -9 363 -28 407 -28 61 -94 132 -146 157 -23 11 -99 46 -169 79 -185 87
-261 167 -301 312 -9 31 -58 516 -113 1110 -54 580 -99 1057 -100 1059 -2 2
-130 -79 -285 -179 -409 -265 -612 -394 -894 -568 -486 -300 -617 -395 -1280
-927 -668 -537 -1072 -847 -1270 -978 -127 -84 -297 -163 -535 -250 -678 -249
-1387 -420 -2120 -511 -521 -65 -1265 -97 -1419 -61 -269 64 -454 319 -438
607 5 101 35 174 96 237 20 20 216 149 436 286 1352 841 2410 1559 2890 1961
281 236 537 519 730 809 467 702 1027 2018 2212 5200 263 706 364 965 486
1241 237 533 487 991 792 1449 173 259 334 478 712 968 354 458 463 606 550
746 163 261 255 455 460 970 224 565 308 744 474 1012 242 391 583 752 1004
1064 205 153 475 320 665 411 65 32 79 43 80 62 0 13 -121 1099 -270 2413
-148 1315 -270 2392 -270 2393 0 2 109 48 243 101 133 53 246 101 251 105 6 6
5 64 -2 147 -177 2111 -193 3962 -38 4387 79 219 253 371 481 421 82 18 209
18 278 0z"/>
<path d="M42056 33978 c-14 -20 -16 -110 -16 -773 0 -492 4 -763 11 -788 12
-43 59 -101 99 -122 14 -7 74 -24 133 -36 164 -34 147 -120 147 718 0 589 -2
708 -14 731 -8 15 -78 87 -155 160 -149 140 -175 154 -205 110z"/>
<path d="M30010 23200 l0 -2790 265 0 265 0 0 264 0 264 248 4 c213 4 258 8
327 26 313 85 495 309 495 612 0 164 -53 300 -159 412 -97 104 -216 167 -377
202 l-69 14 58 1 57 1 0 760 0 760 645 0 645 0 0 -755 0 -755 -305 0 -305 0 0
-905 0 -905 265 0 265 0 2 298 3 297 57 3 57 3 40 -51 c22 -28 125 -163 228
-300 l188 -250 293 0 c165 0 292 4 292 9 0 5 -116 148 -259 317 l-259 309 57
16 c300 83 462 359 396 674 -35 167 -154 315 -315 393 -76 38 -169 68 -225 74
-11 2 129 5 310 8 l330 5 3 1888 2 1887 -560 0 -560 0 0 -695 0 -695 -645 0
-645 0 0 695 0 695 -555 0 -555 0 0 -2790z m910 -1396 c103 -47 153 -121 152
-227 0 -111 -58 -195 -161 -233 -33 -12 -92 -18 -208 -21 l-163 -5 0 257 0
257 168 -4 c142 -3 174 -7 212 -24z m1835 -2 c104 -48 149 -118 143 -223 -5
-87 -39 -141 -118 -184 l-55 -30 -197 -3 -198 -4 0 237 0 237 188 -4 c169 -3
192 -6 237 -26z"/>
<path d="M35743 25975 c-297 -38 -560 -114 -792 -232 -180 -90 -303 -177 -444
-313 -285 -274 -451 -605 -513 -1026 -23 -150 -22 -453 0 -599 76 -492 293
-873 660 -1157 268 -207 619 -349 999 -403 62 -9 126 -18 142 -21 l30 -4 0
-902 0 -903 345 -3 c396 -3 586 8 722 42 486 123 754 515 687 1003 -25 185
-99 333 -234 468 -196 196 -415 277 -795 292 l-165 7 95 12 c870 112 1485 619
1670 1374 42 173 54 286 54 495 0 209 -12 322 -54 495 -107 438 -355 790 -730
1038 -237 156 -558 274 -900 328 -146 23 -622 28 -777 9z m585 -881 c373 -77
629 -320 730 -693 24 -88 26 -112 26 -296 0 -186 -2 -207 -27 -300 -95 -353
-335 -591 -684 -680 -170 -43 -400 -41 -580 5 -109 28 -267 108 -357 181 -219
175 -346 468 -346 794 0 546 337 939 860 1004 97 13 281 5 378 -15z m367
-3299 c179 -46 295 -160 340 -332 19 -73 19 -223 0 -296 -45 -172 -161 -286
-340 -332 -40 -10 -107 -15 -207 -15 l-148 0 0 495 0 495 148 0 c100 0 167 -5
207 -15z"/>
<path d="M38660 24100 l0 -1890 146 0 145 0 -3 -552 -3 -553 -24 -59 c-27 -67
-88 -139 -141 -166 -53 -27 -137 -39 -198 -30 -111 18 -188 83 -234 200 -23
54 -23 62 -26 613 l-3 557 -265 0 -265 0 3 -597 c4 -670 1 -642 80 -803 74
-154 233 -288 415 -351 180 -62 424 -71 622 -23 36 9 113 38 170 66 90 43 116
62 191 136 71 71 95 103 128 172 79 161 76 134 80 798 l3 592 149 0 150 0 0
625 0 626 133 -3 132 -3 469 -622 469 -623 328 0 329 0 0 -215 0 -215 280 0
280 0 2 -682 3 -683 265 0 265 0 3 683 2 682 280 0 280 0 0 220 0 220 -542 0
-543 1 -544 652 c-300 359 -546 658 -548 664 -2 6 14 13 35 17 74 11 217 58
299 96 326 153 551 447 624 815 21 106 18 398 -4 503 -111 510 -496 863 -1072
982 -183 38 -240 40 -1302 40 l-1043 0 0 -1890z m1930 1061 c281 -84 422 -280
389 -543 -19 -156 -120 -289 -274 -363 -127 -62 -169 -67 -567 -72 l-358 -5 0
507 0 507 368 -5 c343 -4 372 -5 442 -26z"/>
<path d="M42543 24808 c4 -1162 4 -1185 25 -1298 95 -500 360 -864 789 -1083
293 -149 572 -211 953 -211 229 -1 333 10 519 51 335 73 602 214 822 433 251
250 387 541 428 922 7 63 11 498 11 1233 l0 1135 -560 0 -560 0 -2 -1162 -3
-1163 -23 -75 c-78 -252 -248 -417 -482 -466 -90 -19 -256 -14 -340 11 -246
74 -409 280 -449 569 -7 52 -11 444 -11 1182 l0 1104 -561 0 -560 0 4 -1182z"/>
<path d="M47853 25974 c-694 -84 -1160 -426 -1275 -936 -27 -122 -29 -336 -4
-452 72 -333 278 -549 657 -690 193 -71 427 -119 859 -176 518 -69 680 -125
755 -262 25 -45 29 -64 29 -123 0 -42 -7 -85 -17 -107 -26 -62 -100 -132 -174
-166 -127 -59 -177 -67 -398 -67 -178 0 -209 3 -284 23 -247 68 -398 213 -419
405 l-7 62 -522 3 -523 2 0 -59 c0 -88 26 -218 64 -327 163 -455 616 -768
1249 -864 l122 -18 -172 -1 -173 -1 0 -560 c0 -308 -4 -560 -8 -560 -5 0 -142
251 -304 558 l-295 557 -287 3 -286 2 0 -905 0 -905 250 0 250 0 0 561 c0 383
3 560 10 557 6 -2 143 -253 305 -558 l294 -555 286 -3 285 -2 0 898 0 899 198
6 c419 13 726 79 1007 216 349 171 551 400 637 719 25 96 35 315 19 420 -16
103 -64 246 -108 321 -79 135 -244 282 -408 363 -232 117 -484 179 -1065 263
-306 44 -442 75 -542 122 -136 63 -196 150 -186 268 9 108 77 192 202 251 97
45 200 64 351 64 157 0 255 -19 363 -70 137 -65 241 -194 257 -318 3 -26 8
-62 11 -79 l5 -33 499 0 c318 0 501 4 505 10 9 15 -14 202 -36 288 -104 398
-425 710 -891 863 -133 44 -315 83 -460 98 -133 15 -488 12 -625 -5z"/>
<path d="M34453 22209 c-526 -51 -863 -399 -863 -894 0 -582 469 -952 1134
-894 449 39 755 272 857 654 30 110 32 344 5 460 -90 388 -399 631 -857 674
-127 12 -144 12 -276 0z m312 -440 c75 -23 142 -67 194 -126 77 -86 111 -188
111 -329 0 -285 -185 -474 -465 -474 -147 0 -279 52 -360 142 -148 165 -161
457 -27 633 120 159 335 219 547 154z"/>
<path d="M40534 22210 c-138 -14 -251 -47 -369 -105 -191 -95 -308 -210 -395
-390 -73 -150 -85 -209 -84 -405 0 -150 3 -173 28 -255 131 -430 544 -680
1053 -635 347 31 622 194 749 448 34 66 72 207 60 219 -4 4 -98 17 -209 29
-111 13 -221 26 -244 29 -32 5 -43 3 -43 -7 0 -29 -51 -120 -91 -163 -136
-147 -380 -178 -562 -71 -25 14 -65 48 -90 76 -148 164 -163 442 -35 635 117
176 398 232 595 118 65 -38 139 -125 164 -193 12 -33 24 -60 28 -60 22 0 486
52 489 54 9 9 -33 149 -64 213 -153 320 -550 507 -980 463z"/>
<path d="M43460 21315 l0 -905 268 2 267 3 0 900 0 900 -267 3 -268 2 0 -905z"/>
<path d="M45075 22209 c-183 -17 -372 -82 -513 -177 -32 -22 -93 -77 -136
-122 -61 -66 -87 -104 -126 -184 -73 -153 -85 -210 -85 -411 0 -180 9 -233 59
-357 54 -133 161 -268 281 -354 198 -140 483 -208 780 -184 385 32 664 203
805 495 114 235 116 557 4 794 -137 292 -411 464 -795 500 -125 12 -143 12
-274 0z m298 -436 c193 -53 317 -232 317 -458 0 -288 -187 -475 -476 -475
-188 0 -352 95 -420 245 -94 204 -55 448 94 587 122 114 299 151 485 101z"/>
<path d="M48995 22209 c-429 -43 -688 -303 -637 -636 24 -151 103 -256 244
-326 100 -50 228 -81 456 -112 228 -31 310 -54 360 -100 33 -30 37 -39 37 -82
0 -63 -29 -103 -97 -134 -47 -21 -67 -24 -183 -24 -128 0 -132 1 -199 34 -74
36 -118 89 -130 156 l-7 35 -249 0 -250 0 0 -30 c0 -88 50 -218 116 -303 76
-98 243 -198 396 -236 179 -46 451 -46 638 0 47 11 131 43 188 70 133 64 211
138 268 254 l39 79 0 131 c0 120 -2 134 -27 188 -15 32 -53 84 -84 117 -105
110 -257 166 -586 215 -329 49 -397 81 -398 187 0 53 55 113 120 132 85 25
150 29 230 12 119 -25 189 -89 205 -188 l7 -38 240 0 241 0 -6 68 c-21 252
-243 457 -560 517 -101 19 -266 25 -372 14z"/>
</g>
</svg>
