<svg width="100" height="100" viewBox="0 0 100 100" fill="none" xmlns="http://www.w3.org/2000/svg">
  <path d="M50 10C45.6 10.5 42.5 11.3 40.1 12.8C37.8 14.3 36.2 16.4 35.2 18.9C34.3 21.5 33.8 24.4 33.8 27.8C33.8 31.1 34.3 34.1 35.2 36.7C36.2 39.2 37.8 41.3 40.1 42.8C42.5 44.3 45.6 45.1 50 45.6V54.4C45.6 54.9 42.5 55.7 40.1 57.2C37.8 58.7 36.2 60.8 35.2 63.3C34.3 65.9 33.8 68.9 33.8 72.2C33.8 75.6 34.3 78.5 35.2 81.1C36.2 83.6 37.8 85.7 40.1 87.2C42.5 88.7 45.6 89.5 50 90V10Z" stroke="black" stroke-width="2"/>
  <path d="M50 10C54.4 10.5 57.5 11.3 59.9 12.8C62.2 14.3 63.8 16.4 64.8 18.9C65.7 21.5 66.2 24.4 66.2 27.8C66.2 31.1 65.7 34.1 64.8 36.7C63.8 39.2 62.2 41.3 59.9 42.8C57.5 44.3 54.4 45.1 50 45.6V54.4C54.4 54.9 57.5 55.7 59.9 57.2C62.2 58.7 63.8 60.8 64.8 63.3C65.7 65.9 66.2 68.9 66.2 72.2C66.2 75.6 65.7 78.5 64.8 81.1C63.8 83.6 62.2 85.7 59.9 87.2C57.5 88.7 54.4 89.5 50 90V10Z" stroke="black" stroke-width="2"/>
</svg>